<svg width="900.00" height="909.33" xmlns="http://www.w3.org/2000/svg" xmlns:xlink="http://www.w3.org/1999/xlink"><symbol id="math" width="900.00" height="909.33" viewBox="0 0 900.00 909.33"><text x="202.00" y="22.00">⊿</text><text x="262.00" y="22.00">∋</text><text x="292.00" y="22.00">⊘</text><text x="322.00" y="22.00">⋿</text><text x="352.00" y="22.00">≥</text><text x="382.00" y="22.00">∌</text><text x="412.00" y="22.00">⋫</text><text x="532.00" y="22.00">≂</text><text x="592.00" y="22.00">∸</text><text x="682.00" y="22.00">⊇</text><text x="832.00" y="22.00">∂</text><text x="862.00" y="22.00">⊉</text><text x="37.00" y="47.98">⋐</text><text x="67.00" y="47.98">≁</text><text x="97.00" y="47.98">⊺</text><text x="127.00" y="47.98">⊚</text><text x="157.00" y="47.98">≯</text><text x="217.00" y="47.98">≬</text><text x="247.00" y="47.98">⋿</text><text x="277.00" y="47.98">⋙</text><text x="307.00" y="47.98">⋧</text><text x="337.00" y="47.98">∪</text><text x="367.00" y="47.98">⊚</text><text x="457.00" y="47.98">⋧</text><text x="517.00" y="47.98">⋼</text><text x="547.00" y="47.98">≞</text><text x="607.00" y="47.98">⋊</text><text x="637.00" y="47.98">⊉</text><text x="667.00" y="47.98">⋗</text><text x="727.00" y="47.98">∣</text><text x="757.00" y="47.98">⋴</text><text x="787.00" y="47.98">≖</text><text x="817.00" y="47.98">⋺</text><text x="847.00" y="47.98">⋎</text><text x="52.00" y="73.96">⋓</text><text x="82.00" y="73.96">≻</text><text x="112.00" y="73.96">∃</text><text x="202.00" y="73.96">⊘</text><text x="262.00" y="73.96">⋖</text><text x="292.00" y="73.96">⋊</text><text x="322.00" y="73.96">∣</text><text x="352.00" y="73.96">⊛</text><text x="442.00" y="73.96">≨</text><text x="562.00" y="73.96">∨</text><text x="592.00" y="73.96">≞</text><text x="652.00" y="73.96">∷</text><text x="682.00" y="73.96">⋷</text><text x="742.00" y="73.96">⋯</text><text x="832.00" y="73.96">≐</text><text x="862.00" y="73.96">⊛</text><text x="7.00" y="99.94">≲</text><text x="97.00" y="99.94">⊥</text><text x="157.00" y="99.94">∆</text><text x="187.00" y="99.94">∖</text><text x="217.00" y="99.94">∗</text><text x="247.00" y="99.94">≾</text><text x="307.00" y="99.94">∢</text><text x="337.00" y="99.94">∶</text><text x="367.00" y="99.94">≨</text><text x="487.00" y="99.94">⊓</text><text x="547.00" y="99.94">∐</text><text x="577.00" y="99.94">⊪</text><text x="757.00" y="99.94">∞</text><text x="787.00" y="99.94">∫</text><text x="817.00" y="99.94">⊶</text><text x="847.00" y="99.94">≶</text><text x="877.00" y="99.94">⋈</text><text x="112.00" y="125.92">∿</text><text x="142.00" y="125.92">⋐</text><text x="382.00" y="125.92">≳</text><text x="412.00" y="125.92">≉</text><text x="472.00" y="125.92">≯</text><text x="622.00" y="125.92">∶</text><text x="712.00" y="125.92">⋊</text><text x="742.00" y="125.92">⋗</text><text x="772.00" y="125.92">⋈</text><text x="802.00" y="125.92">⋽</text><text x="832.00" y="125.92">∲</text><text x="862.00" y="125.92">∮</text><text x="7.00" y="151.90">⋉</text><text x="67.00" y="151.90">⋨</text><text x="127.00" y="151.90">∗</text><text x="187.00" y="151.90">⊳</text><text x="217.00" y="151.90">⋸</text><text x="277.00" y="151.90">∡</text><text x="307.00" y="151.90">≥</text><text x="337.00" y="151.90">∝</text><text x="427.00" y="151.90">≫</text><text x="547.00" y="151.90">⊳</text><text x="577.00" y="151.90">⋍</text><text x="607.00" y="151.90">≴</text><text x="667.00" y="151.90">⊼</text><text x="757.00" y="151.90">⊭</text><text x="817.00" y="151.90">≙</text><text x="847.00" y="151.90">⋝</text><text x="22.00" y="177.88">⊸</text><text x="52.00" y="177.88">∝</text><text x="112.00" y="177.88">⋌</text><text x="142.00" y="177.88">⋴</text><text x="172.00" y="177.88">≠</text><text x="322.00" y="177.88">∛</text><text x="382.00" y="177.88">≣</text><text x="442.00" y="177.88">⋳</text><text x="532.00" y="177.88">∾</text><text x="592.00" y="177.88">⊍</text><text x="622.00" y="177.88">≄</text><text x="652.00" y="177.88">⊙</text><text x="682.00" y="177.88">∞</text><text x="712.00" y="177.88">∜</text><text x="802.00" y="177.88">∖</text><text x="832.00" y="177.88">≄</text><text x="892.00" y="177.88">≵</text><text x="7.00" y="203.87">⋝</text><text x="67.00" y="203.87">⋣</text><text x="157.00" y="203.87">≬</text><text x="187.00" y="203.87">⊼</text><text x="217.00" y="203.87">≯</text><text x="307.00" y="203.87">∛</text><text x="397.00" y="203.87">≔</text><text x="457.00" y="203.87">≩</text><text x="487.00" y="203.87">⋼</text><text x="517.00" y="203.87">⊂</text><text x="547.00" y="203.87">⊢</text><text x="637.00" y="203.87">∡</text><text x="697.00" y="203.87">∼</text><text x="727.00" y="203.87">∆</text><text x="757.00" y="203.87">≗</text><text x="787.00" y="203.87">⋓</text><text x="847.00" y="203.87">⊐</text><text x="22.00" y="229.85">⊳</text><text x="82.00" y="229.85">⊯</text><text x="142.00" y="229.85">⋓</text><text x="172.00" y="229.85">⊰</text><text x="202.00" y="229.85">⊻</text><text x="262.00" y="229.85">∲</text><text x="292.00" y="229.85">≲</text><text x="322.00" y="229.85">≱</text><text x="352.00" y="229.85">⋨</text><text x="472.00" y="229.85">⋋</text><text x="532.00" y="229.85">⊵</text><text x="562.00" y="229.85">≛</text><text x="622.00" y="229.85">≧</text><text x="712.00" y="229.85">⊇</text><text x="772.00" y="229.85">≰</text><text x="802.00" y="229.85">≝</text><text x="37.00" y="255.83">≹</text><text x="97.00" y="255.83">⋇</text><text x="157.00" y="255.83">⋷</text><text x="247.00" y="255.83">⊣</text><text x="277.00" y="255.83">≸</text><text x="307.00" y="255.83">⊠</text><text x="337.00" y="255.83">⋸</text><text x="427.00" y="255.83">∨</text><text x="517.00" y="255.83">∩</text><text x="547.00" y="255.83">≤</text><text x="577.00" y="255.83">≚</text><text x="637.00" y="255.83">⋚</text><text x="667.00" y="255.83">≝</text><text x="757.00" y="255.83">⊋</text><text x="817.00" y="255.83">⋑</text><text x="847.00" y="255.83">∑</text><text x="82.00" y="281.81">∪</text><text x="112.00" y="281.81">≏</text><text x="172.00" y="281.81">∮</text><text x="202.00" y="281.81">≯</text><text x="262.00" y="281.81">⊩</text><text x="322.00" y="281.81">≓</text><text x="382.00" y="281.81">⋒</text><text x="412.00" y="281.81">≹</text><text x="502.00" y="281.81">⋯</text><text x="622.00" y="281.81">∓</text><text x="682.00" y="281.81">≧</text><text x="712.00" y="281.81">⋜</text><text x="742.00" y="281.81">⋶</text><text x="832.00" y="281.81">⋈</text><text x="862.00" y="281.81">⊯</text><text x="892.00" y="281.81">⊟</text><text x="127.00" y="307.79">∻</text><text x="187.00" y="307.79">⊶</text><text x="217.00" y="307.79">∿</text><text x="307.00" y="307.79">⊬</text><text x="337.00" y="307.79">⋳</text><text x="397.00" y="307.79">⋰</text><text x="457.00" y="307.79">∥</text><text x="517.00" y="307.79">≐</text><text x="577.00" y="307.79">⋊</text><text x="607.00" y="307.79">⊛</text><text x="637.00" y="307.79">∫</text><text x="727.00" y="307.79">≸</text><text x="757.00" y="307.79">⊍</text><text x="22.00" y="333.77">⋊</text><text x="52.00" y="333.77">∰</text><text x="82.00" y="333.77">∔</text><text x="292.00" y="333.77">⊰</text><text x="352.00" y="333.77">⊣</text><text x="412.00" y="333.77">⊱</text><text x="442.00" y="333.77">⋀</text><text x="472.00" y="333.77">≕</text><text x="502.00" y="333.77">∉</text><text x="562.00" y="333.77">∋</text><text x="622.00" y="333.77">∑</text><text x="742.00" y="333.77">∰</text><text x="772.00" y="333.77">∝</text><text x="862.00" y="333.77">⋕</text><text x="67.00" y="359.75">⊶</text><text x="97.00" y="359.75">∺</text><text x="217.00" y="359.75">∋</text><text x="247.00" y="359.75">∏</text><text x="277.00" y="359.75">≤</text><text x="307.00" y="359.75">≵</text><text x="337.00" y="359.75">∱</text><text x="517.00" y="359.75">∞</text><text x="637.00" y="359.75">⊭</text><text x="667.00" y="359.75">⋷</text><text x="727.00" y="359.75">⋺</text><text x="757.00" y="359.75">⋅</text><text x="787.00" y="359.75">∁</text><text x="817.00" y="359.75">⊕</text><text x="847.00" y="359.75">⋸</text><text x="22.00" y="385.73">⋫</text><text x="82.00" y="385.73">≆</text><text x="112.00" y="385.73">⊺</text><text x="142.00" y="385.73">⋥</text><text x="202.00" y="385.73">⋝</text><text x="232.00" y="385.73">⊇</text><text x="262.00" y="385.73">∔</text><text x="292.00" y="385.73">≲</text><text x="322.00" y="385.73">⊱</text><text x="352.00" y="385.73">≂</text><text x="382.00" y="385.73">⋵</text><text x="532.00" y="385.73">∧</text><text x="562.00" y="385.73">⊶</text><text x="622.00" y="385.73">⊤</text><text x="652.00" y="385.73">≩</text><text x="742.00" y="385.73">⊀</text><text x="772.00" y="385.73">⋄</text><text x="832.00" y="385.73">≻</text><text x="67.00" y="411.71">∞</text><text x="157.00" y="411.71">∘</text><text x="217.00" y="411.71">≏</text><text x="247.00" y="411.71">⋫</text><text x="277.00" y="411.71">≀</text><text x="337.00" y="411.71">≶</text><text x="367.00" y="411.71">≠</text><text x="397.00" y="411.71">⊠</text><text x="487.00" y="411.71">∘</text><text x="547.00" y="411.71">≮</text><text x="607.00" y="411.71">∴</text><text x="727.00" y="411.71">≝</text><text x="757.00" y="411.71">≹</text><text x="787.00" y="411.71">⊴</text><text x="817.00" y="411.71">⋣</text><text x="112.00" y="437.69">≭</text><text x="172.00" y="437.69">∡</text><text x="202.00" y="437.69">⊤</text><text x="322.00" y="437.69">∊</text><text x="352.00" y="437.69">⊐</text><text x="382.00" y="437.69">⋵</text><text x="412.00" y="437.69">∧</text><text x="502.00" y="437.69">⋜</text><text x="532.00" y="437.69">∨</text><text x="562.00" y="437.69">⋋</text><text x="622.00" y="437.69">⋀</text><text x="652.00" y="437.69">⊺</text><text x="682.00" y="437.69">⋯</text><text x="712.00" y="437.69">∀</text><text x="772.00" y="437.69">⊴</text><text x="832.00" y="437.69">≰</text><text x="862.00" y="437.69">≒</text><text x="892.00" y="437.69">∩</text><text x="127.00" y="463.67">≙</text><text x="157.00" y="463.67">⋌</text><text x="307.00" y="463.67">⊨</text><text x="337.00" y="463.67">⊱</text><text x="517.00" y="463.67">∃</text><text x="577.00" y="463.67">∳</text><text x="607.00" y="463.67">⊏</text><text x="637.00" y="463.67">⊍</text><text x="697.00" y="463.67">≙</text><text x="817.00" y="463.67">∜</text><text x="847.00" y="463.67">⋮</text><text x="877.00" y="463.67">≀</text><text x="22.00" y="489.65">⋺</text><text x="52.00" y="489.65">≑</text><text x="112.00" y="489.65">⋳</text><text x="172.00" y="489.65">⋭</text><text x="232.00" y="489.65">⊖</text><text x="262.00" y="489.65">⋆</text><text x="292.00" y="489.65">∓</text><text x="382.00" y="489.65">∌</text><text x="412.00" y="489.65">⊣</text><text x="502.00" y="489.65">∔</text><text x="562.00" y="489.65">∳</text><text x="652.00" y="489.65">⊸</text><text x="682.00" y="489.65">∸</text><text x="772.00" y="489.65">⊈</text><text x="862.00" y="489.65">≻</text><text x="892.00" y="489.65">⊫</text><text x="7.00" y="515.63">⋺</text><text x="97.00" y="515.63">≮</text><text x="127.00" y="515.63">⋧</text><text x="187.00" y="515.63">⋛</text><text x="247.00" y="515.63">⋩</text><text x="337.00" y="515.63">⊩</text><text x="367.00" y="515.63">⋂</text><text x="457.00" y="515.63">⊣</text><text x="517.00" y="515.63">⋶</text><text x="547.00" y="515.63">⊈</text><text x="607.00" y="515.63">⋻</text><text x="667.00" y="515.63">∤</text><text x="757.00" y="515.63">≚</text><text x="787.00" y="515.63">≁</text><text x="817.00" y="515.63">⊰</text><text x="847.00" y="515.63">≊</text><text x="142.00" y="541.62">⋚</text><text x="352.00" y="541.62">∤</text><text x="382.00" y="541.62">⋇</text><text x="562.00" y="541.62">∷</text><text x="592.00" y="541.62">∥</text><text x="712.00" y="541.62">⋤</text><text x="772.00" y="541.62">⋛</text><text x="37.00" y="567.60">⋡</text><text x="67.00" y="567.60">⋖</text><text x="97.00" y="567.60">⋊</text><text x="127.00" y="567.60">∊</text><text x="157.00" y="567.60">∬</text><text x="187.00" y="567.60">≄</text><text x="217.00" y="567.60">∗</text><text x="247.00" y="567.60">⋊</text><text x="277.00" y="567.60">∾</text><text x="337.00" y="567.60">⊌</text><text x="397.00" y="567.60">⊓</text><text x="427.00" y="567.60">⊽</text><text x="457.00" y="567.60">⋲</text><text x="487.00" y="567.60">∃</text><text x="517.00" y="567.60">⋂</text><text x="547.00" y="567.60">⋪</text><text x="607.00" y="567.60">≥</text><text x="637.00" y="567.60">⊆</text><text x="667.00" y="567.60">∸</text><text x="757.00" y="567.60">⊕</text><text x="787.00" y="567.60">≩</text><text x="877.00" y="567.60">⋇</text><text x="22.00" y="593.58">⋺</text><text x="142.00" y="593.58">∖</text><text x="172.00" y="593.58">⊟</text><text x="202.00" y="593.58">∻</text><text x="322.00" y="593.58">≣</text><text x="442.00" y="593.58">≜</text><text x="502.00" y="593.58">⋽</text><text x="532.00" y="593.58">≕</text><text x="562.00" y="593.58">⊚</text><text x="622.00" y="593.58">≺</text><text x="712.00" y="593.58">⋪</text><text x="772.00" y="593.58">≥</text><text x="862.00" y="593.58">⊇</text><text x="67.00" y="619.56">∆</text><text x="127.00" y="619.56">≠</text><text x="277.00" y="619.56">≍</text><text x="397.00" y="619.56">⊱</text><text x="487.00" y="619.56">⊍</text><text x="547.00" y="619.56">∬</text><text x="577.00" y="619.56">⋊</text><text x="637.00" y="619.56">⋙</text><text x="667.00" y="619.56">≅</text><text x="697.00" y="619.56">∤</text><text x="757.00" y="619.56">≉</text><text x="787.00" y="619.56">⊘</text><text x="817.00" y="619.56">⋝</text><text x="847.00" y="619.56">∵</text><text x="877.00" y="619.56">⋐</text><text x="22.00" y="645.54">⊅</text><text x="112.00" y="645.54">∬</text><text x="202.00" y="645.54">⊈</text><text x="232.00" y="645.54">≊</text><text x="262.00" y="645.54">∍</text><text x="412.00" y="645.54">⊙</text><text x="472.00" y="645.54">⊇</text><text x="502.00" y="645.54">∊</text><text x="562.00" y="645.54">∟</text><text x="592.00" y="645.54">≠</text><text x="622.00" y="645.54">∶</text><text x="682.00" y="645.54">≦</text><text x="832.00" y="645.54">≭</text><text x="862.00" y="645.54">⊮</text><text x="37.00" y="671.52">≳</text><text x="67.00" y="671.52">∁</text><text x="97.00" y="671.52">⊆</text><text x="157.00" y="671.52">≓</text><text x="217.00" y="671.52">≥</text><text x="247.00" y="671.52">∱</text><text x="367.00" y="671.52">∯</text><text x="397.00" y="671.52">≚</text><text x="427.00" y="671.52">≶</text><text x="457.00" y="671.52">≨</text><text x="487.00" y="671.52">∏</text><text x="517.00" y="671.52">⊃</text><text x="637.00" y="671.52">≛</text><text x="667.00" y="671.52">∎</text><text x="697.00" y="671.52">⋨</text><text x="757.00" y="671.52">≠</text><text x="787.00" y="671.52">⋠</text><text x="847.00" y="671.52">≟</text><text x="22.00" y="697.50">∓</text><text x="52.00" y="697.50">⋊</text><text x="112.00" y="697.50">⊎</text><text x="142.00" y="697.50">⋶</text><text x="172.00" y="697.50">⊶</text><text x="352.00" y="697.50">⋇</text><text x="382.00" y="697.50">≏</text><text x="532.00" y="697.50">≲</text><text x="562.00" y="697.50">⋬</text><text x="592.00" y="697.50">⊋</text><text x="802.00" y="697.50">∎</text><text x="832.00" y="697.50">≼</text><text x="862.00" y="697.50">⋺</text><text x="892.00" y="697.50">≹</text><text x="37.00" y="723.48">⋜</text><text x="67.00" y="723.48">∑</text><text x="97.00" y="723.48">∜</text><text x="127.00" y="723.48">∬</text><text x="247.00" y="723.48">∰</text><text x="277.00" y="723.48">∟</text><text x="307.00" y="723.48">⋪</text><text x="367.00" y="723.48">∸</text><text x="427.00" y="723.48">≜</text><text x="487.00" y="723.48">⊦</text><text x="547.00" y="723.48">⊄</text><text x="577.00" y="723.48">⋮</text><text x="637.00" y="723.48">⊆</text><text x="817.00" y="723.48">⋮</text><text x="847.00" y="723.48">≠</text><text x="142.00" y="749.46">∳</text><text x="172.00" y="749.46">∬</text><text x="232.00" y="749.46">∔</text><text x="262.00" y="749.46">∓</text><text x="352.00" y="749.46">∦</text><text x="382.00" y="749.46">⊛</text><text x="472.00" y="749.46">≶</text><text x="562.00" y="749.46">⊪</text><text x="592.00" y="749.46">⊌</text><text x="652.00" y="749.46">≨</text><text x="712.00" y="749.46">⋠</text><text x="772.00" y="749.46">∻</text><text x="832.00" y="749.46">⋬</text><text x="892.00" y="749.46">∶</text><text x="37.00" y="775.44">⋎</text><text x="97.00" y="775.44">⊫</text><text x="127.00" y="775.44">∟</text><text x="157.00" y="775.44">⋠</text><text x="187.00" y="775.44">≖</text><text x="217.00" y="775.44">⊊</text><text x="247.00" y="775.44">≛</text><text x="367.00" y="775.44">∖</text><text x="457.00" y="775.44">≟</text><text x="577.00" y="775.44">⋶</text><text x="607.00" y="775.44">∺</text><text x="637.00" y="775.44">∆</text><text x="757.00" y="775.44">⋾</text><text x="787.00" y="775.44">⊯</text><text x="817.00" y="775.44">≣</text><text x="847.00" y="775.44">∱</text><text x="22.00" y="801.42">⋖</text><text x="82.00" y="801.42">⊏</text><text x="142.00" y="801.42">≙</text><text x="202.00" y="801.42">⋡</text><text x="322.00" y="801.42">≴</text><text x="502.00" y="801.42">⊧</text><text x="532.00" y="801.42">⊃</text><text x="562.00" y="801.42">⋈</text><text x="652.00" y="801.42">≾</text><text x="682.00" y="801.42">⋁</text><text x="742.00" y="801.42">∾</text><text x="802.00" y="801.42">⋑</text><text x="862.00" y="801.42">⊯</text><text x="892.00" y="801.42">≇</text><text x="7.00" y="827.40">⊲</text><text x="127.00" y="827.40">∁</text><text x="247.00" y="827.40">≟</text><text x="427.00" y="827.40">≞</text><text x="457.00" y="827.40">∫</text><text x="487.00" y="827.40">≦</text><text x="517.00" y="827.40">∃</text><text x="607.00" y="827.40">⋥</text><text x="667.00" y="827.40">∬</text><text x="727.00" y="827.40">⋮</text><text x="757.00" y="827.40">≼</text><text x="787.00" y="827.40">≠</text><text x="817.00" y="827.40">≘</text><text x="847.00" y="827.40">∄</text><text x="877.00" y="827.40">∺</text><text x="52.00" y="853.38">⋰</text><text x="142.00" y="853.38">≥</text><text x="172.00" y="853.38">⋴</text><text x="232.00" y="853.38">∛</text><text x="262.00" y="853.38">⊀</text><text x="292.00" y="853.38">∪</text><text x="322.00" y="853.38">≇</text><text x="532.00" y="853.38">∰</text><text x="562.00" y="853.38">⋳</text><text x="592.00" y="853.38">⊌</text><text x="772.00" y="853.38">≲</text><text x="802.00" y="853.38">⊿</text><text x="832.00" y="853.38">⊩</text><text x="892.00" y="853.38">≏</text><text x="67.00" y="879.37">⋭</text><text x="157.00" y="879.37">≂</text><text x="187.00" y="879.37">≦</text><text x="277.00" y="879.37">≛</text><text x="367.00" y="879.37">⋠</text><text x="427.00" y="879.37">≲</text><text x="457.00" y="879.37">≋</text><text x="517.00" y="879.37">⋠</text><text x="547.00" y="879.37">≎</text><text x="667.00" y="879.37">⊰</text><text x="697.00" y="879.37">≚</text><text x="787.00" y="879.37">⋀</text><text x="847.00" y="879.37">⋳</text><text x="22.00" y="905.35">∈</text><text x="112.00" y="905.35">⊖</text><text x="202.00" y="905.35">⋪</text><text x="232.00" y="905.35">⋫</text><text x="262.00" y="905.35">⊪</text><text x="352.00" y="905.35">⋊</text><text x="382.00" y="905.35">⋯</text><text x="502.00" y="905.35">≒</text><text x="532.00" y="905.35">⋆</text><text x="562.00" y="905.35">⋧</text><text x="592.00" y="905.35">⋁</text><text x="742.00" y="905.35">⊲</text><text x="772.00" y="905.35">⋗</text><text x="802.00" y="905.35">⋗</text><text x="832.00" y="905.35">⊤</text></symbol><style>
    text {
        font: bold 14px serif;
        fill: gold;
        text-align: center;
        text-baseline: middle;
    }
    </style><filter id="blur"><feGaussianBlur in="SourceGraphic" stdDeviation="3"></feGaussianBlur></filter><use xlink:href="#math" x="0" y="0" filter="url(#blur)"></use><use xlink:href="#math" x="0" y="0"></use></svg>
